<?xml version="1.0" encoding="UTF-8"?><svg id="Layer_2" xmlns="http://www.w3.org/2000/svg" viewBox="0 0 131.32 57"><defs><style>.cls-1{fill:#fff;}.cls-2{fill:#ff2b34;}</style></defs><g id="Layer_1-2"><g><path class="cls-1" d="M29.65,44.94c-4.75,.58-9.95,.91-16.07,.91-.3,0-1.25,0-1.53,0-3.85,0-9.71-2.68-11.14-8.67-.21-.87-.91-4.21-.91-7.46s.71-6.56,.94-7.46c1.28-5.06,5.93-8.64,11.1-8.64,.34,0,1.02,0,1.55,0,2.97,0,5.95,0,10.01,.34V6.06c0-3.35,2.71-6.06,6.06-6.06h0V44.94Zm-6.06-25.75c-3.88-.22-6.86-.36-10.01-.36-4.01,0-6.92,2.89-7.6,6.25-.1,.49-.39,3.61-.37,4.64,.03,1.25,.22,3.81,.38,4.62,.62,3.32,3.52,6.24,7.59,6.24,3.14,0,7.52-.09,10.01-.32V19.19Z"/><path class="cls-1" d="M35.25,29.66c0-11.1,5.28-16.65,15.85-16.65s15.85,5.55,15.85,16.65-5.28,16.61-15.85,16.61-15.81-5.54-15.85-16.61Zm15.85,11.47c6.66,0,9.99-3.58,9.99-11.59s-3.33-11.41-9.99-11.41-9.99,3.57-9.99,11.41,3.33,11.59,9.99,11.59Z"/><path class="cls-2" d="M78.43,2.08V7.63h-5.87c0-3.06,2.48-5.55,5.55-5.55h.32Zm0,10.94V46.31h-5.87V13.02h5.87Z"/><path class="cls-2" d="M84.03,7.63h.47c2.98,0,5.41,2.41,5.44,5.39h0s8.05,0,8.05,0v4.76h-8.09v19.12c0,3.11,1.34,4.66,4.03,4.66h4.06v4.76h-5.58c-5.58,0-8.37-2.99-8.37-8.97V7.63Z"/><path class="cls-1" d="M103.58,17.77v-4.76s4.21-.49,5.71,2.09c1.99,3.4,8.09,23.91,8.09,23.91l9.73-26h0c2.97,0,5,3.01,3.89,5.76l-11.5,28.51c-1.52,3.76-3.52,6.64-6,8.64s-5.85,1.18-7.29-1.48h0c3.72-1.63,6.5-4.47,8.19-8.15,0,0-7.64-28.58-10.84-28.54Z"/></g></g></svg>