<svg xmlns="http://www.w3.org/2000/svg" width="17.056" height="17.667" viewBox="160 141.333 17.056 17.667"><path d="m176.797 157.425-4.205-4.373a7.11 7.11 0 0 0 1.674-4.586c0-3.933-3.2-7.133-7.133-7.133s-7.133 3.2-7.133 7.133 3.2 7.133 7.133 7.133a7.057 7.057 0 0 0 4.086-1.29l4.237 4.406a.923.923 0 0 0 .67.285.931.931 0 0 0 .67-1.575Zm-9.664-14.23a5.278 5.278 0 0 1 5.272 5.271 5.278 5.278 0 0 1-5.272 5.272 5.278 5.278 0 0 1-5.272-5.272 5.278 5.278 0 0 1 5.272-5.272Z" fill="#ff2b34" fill-rule="evenodd" data-name="search"/></svg>